<?xml version="1.0" encoding="UTF-8" standalone="no"?>
<!-- Generator: Adobe Illustrator 24.1.0, SVG Export Plug-In . SVG Version: 6.00 Build 0)  -->

<svg
   version="1.2"
   id="svg22"
   viewBox="0 0 216 216"
   xml:space="preserve"
   sodipodi:docname="CLIENTNAME.svg"
   inkscape:version="1.3 (0e150ed, 2023-07-21)"
   xmlns:inkscape="http://www.inkscape.org/namespaces/inkscape"
   xmlns:sodipodi="http://sodipodi.sourceforge.net/DTD/sodipodi-0.dtd"
   xmlns="http://www.w3.org/2000/svg"
   xmlns:svg="http://www.w3.org/2000/svg"><defs
   id="defs1" /><sodipodi:namedview
   id="namedview1"
   pagecolor="#ffffff"
   bordercolor="#000000"
   borderopacity="0.25"
   inkscape:showpageshadow="2"
   inkscape:pageopacity="0.0"
   inkscape:pagecheckerboard="0"
   inkscape:deskcolor="#d1d1d1"
   inkscape:zoom="1.0925926"
   inkscape:cx="107.54237"
   inkscape:cy="108"
   inkscape:window-width="1312"
   inkscape:window-height="809"
   inkscape:window-x="0"
   inkscape:window-y="44"
   inkscape:window-maximized="0"
   inkscape:current-layer="g16" />&#10;   <title
   id="title1">BIMI Group</title>&#10;<g
   id="g16"
   transform="translate(18.341949,5.1463051)"
   fill="#ffffff">&#10;	&#10;	&#10;	&#10;	&#10;<path
   style="font-weight:bold;font-size:78.774px;font-family:Palatino;-inkscape-font-specification:'Palatino Bold';fill:#000000;stroke-width:6.5645"
   d="m 6.9644004,129.06683 v -3.1925 q 3.1155736,-0.23078 3.6925316,-0.38464 0.615422,-0.19232 1.038524,-0.53849 0.423103,-0.38464 0.846205,-1.15392 0.461567,-0.80774 2.654007,-5.88497 1.000061,-2.38476 3.846387,-9.42365 l 10.03907,-24.770727 3.38482,-8.731298 h 5.461869 l 17.193349,40.156275 2.38476,5.26955 1.538555,3.53868 q 0.384639,0.69235 0.730813,1.00006 0.346175,0.30771 0.769278,0.46157 0.461566,0.15385 2.269368,0.26924 0.576958,0.0769 1.69241,0.19232 v 3.1925 l -10.692955,-0.23078 -13.500818,0.23078 v -3.1925 q 4.654128,-0.19232 5.231086,-0.50003 0.615422,-0.34617 0.615422,-1.11545 0,-0.9616 -0.884669,-3.15404 l -3.307892,-8.46205 H 22.196092 l -1.69241,4.61567 q -1.923193,5.30801 -1.923193,6.61578 0,0.92313 0.615422,1.30777 0.923132,0.5385 5.500333,0.69235 v 3.1925 L 15.81109,128.83605 Z M 23.96543,108.25788 q 3.615604,0.11539 8.192804,0.11539 4.423345,0 7.923557,-0.11539 L 31.850523,88.410525 Z M 68.391198,98.218811 v -2.923254 q 3.307892,-0.192319 6.654249,-0.884669 3.346356,-0.692349 8.577442,-2.461687 l 0.538494,0.423102 q -0.538494,7.615846 -0.538494,14.077777 v 4.30795 q 0,5.50034 0.269247,7.3466 0.384639,2.42322 1.846266,3.65407 1.461627,1.23084 3.884851,1.23084 2.769398,0 4.654128,-1.42316 1.884729,-1.46163 2.615543,-3.00018 0.461566,-1.00006 0.461566,-4.1541 v -6.57732 l -0.07693,-5.46187 q 0,-2.654008 -0.346175,-3.192502 -0.19232,-0.346175 -0.769278,-0.538494 -0.576958,-0.19232 -4.692592,-0.423103 v -2.923254 q 5.9619,-0.769277 8.115877,-1.230844 2.153975,-0.461566 7.308135,-2.115512 l 0.73081,0.423102 -0.4231,7.077352 q -0.30771,7.538915 -0.30771,8.423585 v 7.8851 q 0,7.03888 0.34617,8.69283 0.15386,0.69235 0.57696,0.9616 0.73082,0.38463 4.73106,0.57695 v 3.07711 l -7.92356,-0.19232 -7.26967,0.19232 -0.269247,-0.30771 0.230783,-2.96172 q 0.03846,-0.73081 0.03846,-2.96171 -1.500091,1.19238 -2.615543,2.19244 l -4.346417,4.11563 q -2.654007,0.9616 -5.346478,0.9616 -5.192622,0 -8.15434,-2.84633 -2.961717,-2.84632 -2.961717,-7.57738 0,-0.57696 0.115391,-4.26949 0.03846,-1.96166 0.03846,-5.07723 l -0.07693,-8.11588 q 0,-2.230901 -0.307711,-2.769395 -0.269247,-0.538494 -0.923133,-0.807741 -0.653885,-0.269247 -4.38488,-0.423103 z m 47.849042,1.577019 v -1.730874 l 3.46175,-2.192441 q 0.84621,-0.538494 1.61548,-1.153916 v -5.154158 q 0,-2.769399 -0.30771,-6.846569 3.731,-1.230843 4.84645,-1.653946 0.19232,-0.07693 4.88491,-2.269368 l 1.00006,0.769277 -0.38464,4.000242 -0.26924,4.423345 -0.34618,6.731177 h 1.26931 q 5.11569,0 7.73124,-0.384638 l -0.65389,5.192622 q -0.46156,0.07693 -0.8462,0.07693 l -3.76946,-0.07693 h -3.731 v 12.846927 q 0,5.92344 0.11539,7.00043 0.15386,1.8078 1.26931,2.84632 1.15392,1.00007 3.30789,1.00007 1.30778,0.0385 2.07705,-0.0385 0.80774,-0.11539 2.03859,-0.38464 l 0.61542,1.57702 -1.3847,1.3847 q -1.69241,1.73087 -2.96172,3.03865 -1.50009,0.65388 -2.69247,0.8462 -1.15391,0.23078 -2.38476,0.23078 -4.46181,0 -7.03889,-2.26936 -2.53861,-2.30784 -2.53861,-5.73112 l 0.15385,-12.69308 v -9.500572 h -1.03852 q -2.11551,0 -4.03871,0.115392 z m 48.92605,26.30929 v 2.96171 q -4.34642,-0.19232 -9.6929,-0.19232 -5.9619,0 -12.38536,0.19232 v -2.96171 q 3.00018,0 4.15409,-0.42311 0.5385,-0.19232 0.80775,-0.65388 0.38463,-0.73082 0.4231,-2.7694 l 0.15385,-3.42329 q 0.0385,-1.07698 0.0385,-3.50021 v -5.03876 q 0,-3.42329 -0.23079,-8.3082 -0.11539,-2.461687 -0.34617,-2.769398 -0.19232,-0.346175 -0.65389,-0.500031 -0.73081,-0.269247 -4.34641,-0.384638 v -2.961718 q 7.00042,-1.19238 9.19286,-1.769338 2.19244,-0.576958 4.96184,-1.846266 l 1.03852,0.461567 -0.0769,7.769701 q 2.50015,-2.577079 3.84638,-4.269489 2.00013,-2.38476 3.00019,-3.038646 1.38469,-0.923133 3.65406,-0.923133 1.42317,0 2.57708,0.461567 l -0.23078,5.461869 q -0.11539,4.461813 -0.19232,5.115693 l -1.61548,0.50003 q -0.9616,-1.26931 -1.84627,-1.76934 -1.42316,-0.80774 -3.11557,-0.80774 -2.26937,0 -3.92332,1.42317 -1.61548,1.3847 -1.92319,2.84632 -0.15386,0.84621 -0.15386,6.5004 v 3.84638 l 0.0769,5.23109 q 0.0385,2.96172 0.19232,3.65407 0.19232,0.65388 0.80774,1.03852 0.61543,0.38464 2.65401,0.53849 z m 19.38578,-52.733968 q 2.46169,0 4.1541,1.730874 1.73088,1.730874 1.73088,4.154098 0,2.461688 -1.73088,4.192562 -1.69241,1.730874 -4.1541,1.730874 -2.42322,0 -4.15409,-1.730874 -1.73088,-1.730874 -1.73088,-4.192562 0,-2.423224 1.69241,-4.154098 1.73088,-1.730874 4.19256,-1.730874 z m -10.5391,55.695678 v -2.84632 q 4.30796,-0.30771 4.92338,-0.65389 0.61542,-0.38464 0.76928,-1.3847 0.38464,-2.11551 0.38464,-10.88527 0,-12.03919 -0.34618,-13.69314 -0.15385,-0.769277 -0.50003,-1.00006 -0.76928,-0.50003 -5.23109,-0.538494 v -2.923254 q 5.80805,-0.615422 8.76977,-1.307772 2.96171,-0.692349 6.46193,-2.115513 l 0.92313,0.500031 q -0.46157,6.000363 -0.46157,11.269912 v 13.07772 q 0,6.69271 0.30771,7.92355 0.15386,0.69235 0.61543,0.92314 1.03852,0.50003 5.03876,0.65388 v 3.00018 q -5.46187,-0.15385 -11.88533,-0.15385 -5.5388,0 -9.76983,0.15385 z m 56.69575,-5.07723 -1.69241,3.731 q -3.30789,1.65394 -5.38494,2.15397 -2.03859,0.5385 -4.92338,0.5385 -6.30807,0 -10.23139,-2.46169 -3.92331,-2.46169 -5.9619,-7.03889 -1.46162,-3.23096 -1.46162,-8.6159 0,-4.03871 0.76927,-6.61579 0.76928,-2.57708 2.19244,-4.53873 0.9616,-1.307776 2.57708,-2.461692 l 5.92344,-3.730996 q 3.00018,-1.923193 4.11563,-2.307832 1.84627,-0.692349 4.80799,-0.692349 2.46168,0 4.5772,0.423102 2.15397,0.384639 3.96178,1.19238 l 0.38463,0.653886 -0.96159,6.269611 q -0.11539,0.8462 -0.38464,5.30801 h -3.00018 q -0.23079,-3.42328 -0.57696,-5.07723 -0.80774,-1.307769 -2.50015,-2.11551 -1.69241,-0.846205 -4.1541,-0.846205 -2.92325,0 -4.65413,1.076988 -1.73087,1.076988 -2.53861,3.615607 -0.80774,2.53861 -0.80774,6.15422 0,4.84644 1.65394,8.69283 1.65395,3.80792 4.34642,5.61572 2.73093,1.76934 6.69271,1.76934 1.8078,0 3.42329,-0.38464 1.61548,-0.4231 3.07711,-1.19238 z"
   id="text1"
   transform="scale(0.76967439,1.2992507)"
   aria-label="Autric" /><path
   style="font-weight:bold;font-size:78.774px;font-family:Palatino;-inkscape-font-specification:'Palatino Bold';fill:#999999;fill-opacity:0.613546;stroke-width:6.5645"
   d="m 119.36899,136.56771 q 2.50015,0 4.23102,1.76934 1.76934,1.73087 1.76934,4.23102 0,2.50015 -1.76934,4.26949 -1.76934,1.76934 -4.23102,1.76934 -2.50016,0 -4.26949,-1.76934 -1.76934,-1.76934 -1.76934,-4.26949 0,-2.50015 1.73087,-4.23102 1.76934,-1.76934 4.30796,-1.76934 z m 56.38803,8.1928 v 2.96172 q -5.23109,-0.26925 -8.53898,-0.26925 -3.80793,0 -6.61579,0.26925 l -0.69235,-0.69235 q 0.0769,-0.80774 0.50003,-6.65425 l 0.19232,-6.30807 v -3.03865 q 0,-6.73118 -0.53849,-8.84669 -0.50003,-2.11551 -2.11551,-3.38482 -1.61549,-1.30777 -4.30796,-1.30777 -2.69247,0 -4.46181,1.30777 -1.76933,1.26931 -2.2309,2.57708 -0.26925,0.76928 -0.23078,6.15422 v 6.46193 q 0,2.80786 0.15385,6.88503 0.0385,1.8078 0.30771,2.38476 0.19232,0.4231 0.50003,0.61542 0.46157,0.30771 1.8078,0.57696 0.46157,0.0769 3.23097,0.30771 v 2.96172 q -4.19256,-0.15386 -10.26985,-0.15386 -7.03889,0 -10.92374,0.15386 v -2.96172 q 3.00018,0 4.1541,-0.4231 0.53849,-0.19232 0.80774,-0.65389 0.38464,-0.73081 0.4231,-2.7694 l 0.15386,-3.42328 q 0.0385,-1.07699 0.0385,-3.50021 v -5.03877 q 0,-3.42328 -0.23078,-8.30819 -0.1154,-2.46169 -0.34618,-2.7694 -0.19232,-0.34618 -0.65388,-0.50003 -0.73082,-0.26925 -4.34642,-0.38464 v -2.96172 q 7.00042,-1.19238 9.19286,-1.76934 2.19244,-0.57696 4.96184,-1.84626 l 1.03853,0.46156 v 6.19269 l 7.00042,-5.61573 q 1.26931,-0.50003 2.11551,-0.65388 0.88467,-0.19232 2.42323,-0.19232 4.11563,0 6.15422,0.92313 2.07704,0.92313 3.50021,2.61554 1.42316,1.65395 2.00012,3.50021 0.57696,1.80781 0.57696,5.69266 0,4.38488 -0.0769,5.57726 -0.0385,0.46156 -0.0385,1.11545 l 0.0385,3.96178 q 0.0385,6.50039 0.19232,8.03895 0.19232,1.53855 0.69235,2.00012 0.53849,0.4231 2.30783,0.53849 0.65389,0.0385 2.15398,0.19232 z m 37.30995,-2.96172 -1.69241,3.76946 q -3.15404,1.9232 -6.5004,2.84633 -2.50015,0.65388 -5.69265,0.65388 -3.80792,0 -6.73118,-0.88466 -2.88479,-0.88467 -4.96184,-2.42323 -2.03858,-1.53855 -3.6156,-3.76946 -1.53855,-2.2309 -2.2309,-5.15416 -0.69235,-2.92325 -0.69235,-6.385 0,-5.03876 1.34623,-9.00054 0.92314,-2.7694 2.15398,-4.00025 0.76928,-0.76927 4.00024,-2.88479 3.23097,-2.11551 4.69259,-2.76939 2.69247,-1.19238 6.34654,-1.19238 5.15416,0 8.46205,2.15397 3.3079,2.15398 4.65413,5.50034 1.3847,3.34635 1.3847,8.11587 0,1.07699 -0.0769,2.07705 -0.96159,0.30771 -2.92325,0.69235 -2.61554,0.50003 -3.53868,0.53849 -2.88479,0.23079 -7.61584,0.26925 -4.73106,0.0385 -5.23109,0.0769 -0.50003,0.0385 -1.11545,0.0385 h -2.53862 q 0.30771,6.07729 3.76946,9.61597 3.46175,3.50021 8.53898,3.50021 2.19244,0 4.03871,-0.46156 1.84626,-0.50003 4.84644,-2.00013 z m -9.1544,-15.92404 q 0.15385,-6.11575 -1.65395,-8.57744 -1.84627,-2.42322 -4.76952,-2.42322 -3.00018,0 -4.96184,2.53861 -2.00012,2.57708 -1.84626,8.46205 2.26936,0.34618 7.57738,0.34618 3.38482,0 5.65419,-0.34618 z m 14.61627,-7.42352 v -1.73088 l 3.46174,-2.19244 q 0.84621,-0.53849 1.61549,-1.15392 v -5.15415 q 0,-2.7694 -0.30771,-6.84657 3.73099,-1.23085 4.84644,-1.653949 0.19232,-0.07693 4.88491,-2.269368 l 1.00007,0.769278 -0.38464,4.000239 -0.26925,4.42335 -0.34618,6.73117 h 1.26931 q 5.1157,0 7.73124,-0.38463 l -0.65389,5.19262 q -0.46156,0.0769 -0.8462,0.0769 l -3.76946,-0.0769 h -3.731 v 12.84693 q 0,5.92344 0.1154,7.00042 0.15385,1.80781 1.2693,2.84633 1.15392,1.00006 3.3079,1.00006 1.30777,0.0385 2.07705,-0.0385 0.80774,-0.11539 2.03858,-0.38464 l 0.61542,1.57702 -1.3847,1.3847 q -1.69241,1.73087 -2.96171,3.03864 -1.5001,0.65389 -2.69248,0.84621 -1.15391,0.23078 -2.38476,0.23078 -4.4618,0 -7.03888,-2.26937 -2.53862,-2.30783 -2.53862,-5.73111 l 0.15386,-12.69308 v -9.50058 h -1.03853 q -2.11551,0 -4.0387,0.1154 z"
   id="text1-7"
   transform="scale(0.76967439,1.2992507)"
   aria-label=".net" /></g>&#10;<polygon
   id="polygon18"
   fill="#00B3E6"
   points="109,91.9 81.1,64.4 53.2,36.8 53.2,98.7 164.8,98.7 164.8,36.8 136.9,64.4 " />&#10;<polygon
   id="polygon20"
   fill="#00B3E6"
   points="82,57.1 109,83.8 136,57.1 163,30.4 109,30.4 55,30.4 " />&#10;</svg>
