<?xml version="1.0" encoding="UTF-8"?>
<svg version="1.2" baseProfile="tiny-ps" xmlns="http://www.w3.org/2000/svg"
     viewBox="0 0 10868 10868" width="10868" height="10868">
  <title>Autric</title>
  <g transform="translate(167,0)">
    <path fill="#000000" d="M 1543,2947 L 1288,2425 706,2383 1131,1935 1033,1350 1551,1595 2072,1275 1967,1875 2387,2262 1804,2388 1543,2947 Z"/>
    <path fill="#000000" d="M 2858,1789 L 2567,1569 2218,1709 2342,1339 2124,1040 2492,1031 2706,706 2810,1071 3160,1169 2856,1403 2858,1789 Z"/>
    <path fill="#000000" d="M 3936,5872 L 3546,5244 2799,5266 3285,4644 3087,3917 3777,4160 4401,3689 4342,4461 4926,4897 4199,5131 3936,5872 Z"/>
    <path fill="#000000" d="M 3674,8365 L 3526,7842 3004,7707 3463,7364 3468,6809 3899,7120 4425,6912 4232,7446 4552,7873 4002,7893 3674,8365 Z"/>
    <path fill="#000000" d="M 6712,10163 L 6462,9652 5892,9611 6309,9171 6213,8598 6720,8838 7231,8525 7127,9112 7540,9492 6968,9615 6712,10163 Z"/>
    <path fill="#000000" d="M 8783,8361 L 8440,8561 8415,8956 8118,8694 7733,8793 7891,8430 7678,8096 8074,8134 8327,7829 8413,8215 8783,8361 Z"/>
    <path fill="#000000" d="M 8044,6846 L 7622,6573 7154,6799 7289,6279 6961,5890 7467,5842 7731,5376 7909,5866 8401,5967 8005,6317 8044,6846 Z"/>
    <path fill="#000000" d="M 8484,7173 L 8767,6792 8606,6359 9059,6494 9437,6201 9435,6665 9829,6918 9374,7070 9240,7519 8961,7148 8484,7173 Z"/>
    <path fill="#000000" d="M 8572,5448 L 8491,5206 8243,5155 8452,4984 8442,4724 8652,4860 8894,4751 8815,5006 8974,5199 8716,5220 8572,5448 Z"/>
    <path fill="#000000" d="M 9013,5536 L 9077,5221 8848,5009 9171,4953 9320,4662 9456,4942 9777,4975 9538,5204 9587,5515 9303,5376 9013,5536 Z"/>
  </g>
</svg>
